<svg width="45" height="45" viewBox="0 0 45 45" fill="none" xmlns="http://www.w3.org/2000/svg">
<path fill-rule="evenodd" clip-rule="evenodd" d="M17.2094 36.7745L33.3363 15.9111C34.2127 14.786 34.5244 13.4853 34.2322 12.1608C33.979 10.9568 33.2389 9.81198 32.1287 8.94349L29.4214 6.79202C27.0647 4.91688 24.1432 5.11427 22.4681 7.26574L20.6568 9.61657C20.4231 9.91067 20.4815 10.3449 20.7736 10.5818C20.7736 10.5818 25.3507 14.2531 25.4481 14.332C25.7597 14.6281 25.9935 15.0229 26.0519 15.4966C26.1493 16.4243 25.5065 17.2928 24.5522 17.4112C24.1042 17.4704 23.6757 17.3323 23.3641 17.0757L18.5533 13.2464C18.3196 13.0708 17.969 13.1083 17.7742 13.3451L6.34124 28.1489C5.60112 29.0766 5.34792 30.2806 5.60112 31.4452L7.06189 37.7811C7.13979 38.1167 7.43195 38.3536 7.78253 38.3536L14.2099 38.2746C15.3785 38.2549 16.4692 37.7219 17.2094 36.7745ZM26.2095 34.8013H36.69C37.7125 34.8013 38.5442 35.6441 38.5442 36.6803C38.5442 37.7186 37.7125 38.5594 36.69 38.5594H26.2095C25.1869 38.5594 24.3553 37.7186 24.3553 36.6803C24.3553 35.6441 25.1869 34.8013 26.2095 34.8013Z" fill="#FFFFFF"/>
</svg>
