<svg width="26" height="26" viewBox="0 0 26 26" fill="none" xmlns="http://www.w3.org/2000/svg">
<path fill-rule="evenodd" clip-rule="evenodd" d="M17.5045 8.91893C17.5045 11.4644 15.4752 13.5055 12.9445 13.5055C10.4137 13.5055 8.38439 11.4644 8.38439 8.91893C8.38439 6.37246 10.4137 4.33334 12.9445 4.33334C15.4752 4.33334 17.5045 6.37246 17.5045 8.91893ZM12.9445 21.6667C9.22734 21.6667 6.05344 21.0774 6.05344 18.7202C6.05344 16.362 9.20697 15.7513 12.9445 15.7513C16.6616 15.7513 19.8355 16.3406 19.8355 18.6987C19.8355 21.0559 16.6819 21.6667 12.9445 21.6667ZM19.4532 9.00166C19.4532 10.2993 19.0662 11.5081 18.3871 12.5131C18.3173 12.6165 18.3794 12.756 18.5026 12.7775C18.6723 12.8067 18.8479 12.8233 19.0264 12.8282C20.8064 12.875 22.404 11.7228 22.8453 9.98805C23.4991 7.41134 21.5795 5.09806 19.135 5.09806C18.8692 5.09806 18.6151 5.12635 18.3677 5.17708C18.3338 5.18489 18.2979 5.2005 18.2785 5.23075C18.2552 5.26782 18.2727 5.31758 18.296 5.34978C19.0303 6.38495 19.4532 7.64745 19.4532 9.00166ZM22.4011 14.6386C23.5971 14.8738 24.3838 15.3538 24.7097 16.0514C24.9852 16.6241 24.9852 17.2885 24.7097 17.8602C24.2111 18.9422 22.6038 19.2896 21.9791 19.3793C21.8501 19.3989 21.7463 19.2866 21.7599 19.1569C22.079 16.1587 19.5405 14.7372 18.8838 14.4103C18.8557 14.3957 18.8498 14.3732 18.8527 14.3596C18.8547 14.3498 18.8663 14.3342 18.8877 14.3313C20.3087 14.3049 21.8365 14.5001 22.4011 14.6386ZM6.97321 12.8281C7.15169 12.8232 7.3263 12.8076 7.49702 12.7774C7.62021 12.7559 7.68229 12.6164 7.61245 12.513C6.93344 11.508 6.5464 10.2992 6.5464 9.00156C6.5464 7.64735 6.96933 6.38485 7.70363 5.34968C7.72691 5.31748 7.74341 5.26772 7.72109 5.23065C7.70169 5.20138 7.66483 5.18479 7.63185 5.17699C7.38353 5.12625 7.12938 5.09796 6.8636 5.09796C4.41915 5.09796 2.49948 7.41124 3.15424 9.98795C3.5956 11.7227 5.19322 12.8749 6.97321 12.8281ZM7.14636 14.359C7.14927 14.3736 7.14345 14.3951 7.11629 14.4107C6.45861 14.7376 3.92007 16.1591 4.23921 19.1563C4.25279 19.287 4.14997 19.3983 4.02095 19.3797C3.39626 19.29 1.78894 18.9426 1.29035 17.8606C1.01389 17.2879 1.01389 16.6245 1.29035 16.0518C1.61628 15.3542 2.40199 14.8741 3.59803 14.638C4.16355 14.5005 5.69036 14.3053 7.11241 14.3317C7.13375 14.3346 7.14442 14.3502 7.14636 14.359Z" fill="#004087"/>
</svg>
