<svg width="19" height="20" viewBox="0 0 19 20" fill="none" xmlns="http://www.w3.org/2000/svg">
<path d="M9.4721 0.194664C14.7047 0.194664 18.9442 4.43419 18.9442 9.66676C18.9442 14.8993 14.7047 19.1389 9.4721 19.1389C4.23953 19.1389 0 14.8993 0 9.66676C0 4.43419 4.23953 0.194664 9.4721 0.194664ZM14.0936 6.68763C14.2463 6.07653 13.8644 5.80917 13.4443 5.96195L4.31592 9.47579C3.70481 9.70496 3.70481 10.0869 4.20133 10.2397L6.53116 10.9654L11.9547 7.5279C12.2221 7.37513 12.4512 7.48971 12.2603 7.64248L7.86795 11.6147L7.71518 14.0209C7.94434 14.0209 8.05892 13.9063 8.1735 13.7917L9.31932 12.6841L11.6873 14.441C12.1457 14.6702 12.4512 14.5556 12.5658 14.0209L14.0936 6.68763Z" fill="white"/>
</svg>
