<svg width="18" height="18" viewBox="0 0 18 18" fill="none" xmlns="http://www.w3.org/2000/svg">
<path d="M9.21755 4.27446C11.6238 4.27446 13.6099 6.26054 13.6099 8.66676C13.6099 11.1112 11.6238 13.0591 9.21755 13.0591C6.77314 13.0591 4.82525 11.1112 4.82525 8.66676C4.82525 6.26054 6.77314 4.27446 9.21755 4.27446ZM9.21755 11.5313C10.7835 11.5313 12.0439 10.2709 12.0439 8.66676C12.0439 7.10081 10.7835 5.84041 9.21755 5.84041C7.61341 5.84041 6.35301 7.10081 6.35301 8.66676C6.35301 10.2709 7.6516 11.5313 9.21755 11.5313ZM14.7939 4.12168C14.7939 4.69459 14.3355 5.15292 13.7626 5.15292C13.1897 5.15292 12.7314 4.69459 12.7314 4.12168C12.7314 3.54877 13.1897 3.09045 13.7626 3.09045C14.3355 3.09045 14.7939 3.54877 14.7939 4.12168ZM17.6966 5.15292C17.773 6.5661 17.773 10.8056 17.6966 12.2188C17.6202 13.5938 17.3147 14.7778 16.3216 15.809C15.3286 16.8021 14.1064 17.1076 12.7314 17.184C11.3182 17.2604 7.07869 17.2604 5.66552 17.184C4.29053 17.1076 3.10652 16.8021 2.07529 15.809C1.08224 14.7778 0.776691 13.5938 0.700303 12.2188C0.623915 10.8056 0.623915 6.5661 0.700303 5.15292C0.776691 3.77794 1.08224 2.55573 2.07529 1.56269C3.10652 0.569646 4.29053 0.264095 5.66552 0.187707C7.07869 0.111319 11.3182 0.111319 12.7314 0.187707C14.1064 0.264095 15.3286 0.569646 16.3216 1.56269C17.3147 2.55573 17.6202 3.77794 17.6966 5.15292ZM15.8633 13.7084C16.3216 12.6007 16.207 9.92716 16.207 8.66676C16.207 7.44456 16.3216 4.77098 15.8633 3.62516C15.5577 2.89948 14.9848 2.28837 14.2592 2.02102C13.1133 1.56269 10.4398 1.67727 9.21755 1.67727C7.95715 1.67727 5.28358 1.56269 4.17595 2.02102C3.41207 2.32657 2.83916 2.89948 2.53361 3.62516C2.07529 4.77098 2.18987 7.44456 2.18987 8.66676C2.18987 9.92716 2.07529 12.6007 2.53361 13.7084C2.83916 14.4722 3.41207 15.0452 4.17595 15.3507C5.28358 15.809 7.95715 15.6944 9.21755 15.6944C10.4398 15.6944 13.1133 15.809 14.2592 15.3507C14.9848 15.0452 15.5959 14.4722 15.8633 13.7084Z" fill="white"/>
</svg>
