<svg width="17" height="19" viewBox="0 0 17 19" fill="none" xmlns="http://www.w3.org/2000/svg">
<path d="M3.92517 6.46216H0.713143C0.570588 6.46216 0.455078 6.58928 0.455078 6.74603V18.0968C0.455078 18.2536 0.570588 18.3807 0.713143 18.3807H3.92517C4.06772 18.3807 4.18323 18.2536 4.18323 18.0968V6.74603C4.18323 6.58928 4.06772 6.46216 3.92517 6.46216Z" fill="white"/>
<path d="M2.32071 0.819336C1.15199 0.819336 0.201172 1.86409 0.201172 3.14827C0.201172 4.43301 1.15199 5.47817 2.32071 5.47817C3.4885 5.47817 4.43854 4.43296 4.43854 3.14827C4.43859 1.86409 3.4885 0.819336 2.32071 0.819336Z" fill="white"/>
<path d="M12.095 6.17993C10.8049 6.17993 9.8513 6.78997 9.27287 7.48313V6.74591C9.27287 6.58916 9.15736 6.46204 9.01481 6.46204H5.93873C5.79617 6.46204 5.68066 6.58916 5.68066 6.74591V18.0967C5.68066 18.2535 5.79617 18.3805 5.93873 18.3805H9.14373C9.28629 18.3805 9.4018 18.2535 9.4018 18.0967V12.4807C9.4018 10.5882 9.8691 9.85095 11.0684 9.85095C12.3745 9.85095 12.4783 11.0329 12.4783 12.578V18.0967C12.4783 18.2535 12.5938 18.3806 12.7364 18.3806H15.9425C16.0851 18.3806 16.2006 18.2535 16.2006 18.0967V11.8706C16.2006 9.05662 15.7128 6.17993 12.095 6.17993Z" fill="white"/>
</svg>
