<svg width="156" height="15" viewBox="0 0 156 15" fill="none" xmlns="http://www.w3.org/2000/svg">
<path d="M0.69498 15V0.737361H7.43356C9.74866 0.737361 10.9062 1.89491 10.9062 4.21V5.45023C10.9062 5.91876 10.7684 6.31839 10.4928 6.64912L9.76933 7.51728L10.6375 8.24075C11.0922 8.61282 11.3196 9.16403 11.3196 9.89439V11.5274C11.3196 13.8425 10.1621 15 7.84697 15H0.69498ZM3.67153 12.3128H7.72295C8.13636 12.3128 8.34306 12.1061 8.34306 11.6927V9.62567C8.34306 9.21226 8.13636 9.00556 7.72295 9.00556H3.67153V12.3128ZM3.67153 6.31839H7.30954C7.72295 6.31839 7.92965 6.11169 7.92965 5.69828V4.04464C7.92965 3.63123 7.72295 3.42453 7.30954 3.42453H3.67153V6.31839ZM14.1792 15V0.737361H17.1558V12.3128H23.3156V15H14.1792ZM25.3796 11.5274V0.737361H28.3561V11.6927C28.3561 12.1061 28.5628 12.3128 28.9762 12.3128H33.0277C33.4411 12.3128 33.6478 12.1061 33.6478 11.6927V0.737361H36.6243V11.5274C36.6243 13.8425 35.4668 15 33.1517 15H28.8522C26.5371 15 25.3796 13.8425 25.3796 11.5274ZM39.8962 15V0.737361H49.6527V3.42453H42.8728V6.31839H49.0326V9.00556H42.8728V12.3128H49.6527V15H39.8962ZM51.7511 13.9251V12.3128H58.1589C58.5724 12.3128 58.7791 12.1061 58.7791 11.6927V10.2044C58.7791 9.80482 58.6068 9.57744 58.2623 9.52232L54.2316 8.6955C52.5779 8.36477 51.7511 7.25546 51.7511 5.36755V4.21C51.7511 1.89491 52.9086 0.737361 55.2237 0.737361H59.9573L61.3422 1.81223V3.42453H55.3478C54.9343 3.42453 54.7276 3.63123 54.7276 4.04464V5.38822C54.7276 5.77407 54.8999 6.00145 55.2444 6.07035L59.2752 6.8765C60.9288 7.20722 61.7556 8.31654 61.7556 10.2044V11.5274C61.7556 13.8425 60.5981 15 58.283 15H53.136L51.7511 13.9251ZM64.3165 11.5274V4.21C64.3165 1.89491 65.474 0.737361 67.7891 0.737361H72.502C74.8171 0.737361 75.9746 1.89491 75.9746 4.21V11.5274C75.9746 13.8425 74.8171 15 72.502 15H67.7891C65.474 15 64.3165 13.8425 64.3165 11.5274ZM67.293 11.6927C67.293 12.1061 67.4997 12.3128 67.9132 12.3128H72.378C72.7914 12.3128 72.9981 12.1061 72.9981 11.6927V4.04464C72.9981 3.63123 72.7914 3.42453 72.378 3.42453H67.9132C67.4997 3.42453 67.293 3.63123 67.293 4.04464V11.6927ZM79.034 11.5274V0.737361H82.0106V11.6927C82.0106 12.1061 82.2173 12.3128 82.6307 12.3128H86.6821C87.0955 12.3128 87.3022 12.1061 87.3022 11.6927V0.737361H90.2788V11.5274C90.2788 13.8425 89.1212 15 86.8061 15H82.5067C80.1916 15 79.034 13.8425 79.034 11.5274ZM93.5507 15V0.737361H100.496C102.811 0.737361 103.969 1.89491 103.969 4.21V6.56644C103.969 8.28898 103.328 9.36385 102.046 9.79104L104.382 14.3799L104.031 15H101.467L98.9457 10.0391H96.5273V15H93.5507ZM96.5273 7.35192H100.372C100.785 7.35192 100.992 7.14521 100.992 6.7318V4.04464C100.992 3.63123 100.785 3.42453 100.372 3.42453H96.5273V7.35192ZM106.748 11.5274V4.21C106.748 1.89491 107.905 0.737361 110.22 0.737361H115.739L117.124 1.81223V3.42453H110.344C109.931 3.42453 109.724 3.63123 109.724 4.04464V11.6927C109.724 12.1061 109.931 12.3128 110.344 12.3128H117.124V13.9251L115.739 15H110.22C107.905 15 106.748 13.8425 106.748 11.5274ZM119.853 15V0.737361H129.61V3.42453H122.83V6.31839H128.989V9.00556H122.83V12.3128H129.61V15H119.853ZM131.977 15V12.0441H135.057V15H131.977ZM138.081 15V0.737361H141.058V15H138.081ZM144.44 15V0.737361H151.385C153.7 0.737361 154.858 1.89491 154.858 4.21V6.56644C154.858 8.28898 154.217 9.36385 152.935 9.79104L155.271 14.3799L154.92 15H152.356L149.835 10.0391H147.416V15H144.44ZM147.416 7.35192H151.261C151.674 7.35192 151.881 7.14521 151.881 6.7318V4.04464C151.881 3.63123 151.674 3.42453 151.261 3.42453H147.416V7.35192Z" fill="#007AFF"/>
</svg>
