<svg width="33" height="33" viewBox="0 0 33 33" fill="none" xmlns="http://www.w3.org/2000/svg">
<path d="M20.0148 21.3781L19.3885 22.0374C19.3885 22.0374 17.8999 23.6046 13.8368 19.3269C9.77366 15.0491 11.2622 13.482 11.2622 13.482L11.6566 13.0668C12.6281 12.044 12.7197 10.4018 11.8721 9.20301L10.1382 6.75071C9.08913 5.26694 7.06194 5.07093 5.85949 6.33688L3.70129 8.60907C3.10506 9.23678 2.70552 10.0505 2.75397 10.9532C2.87793 13.2625 3.86472 18.2311 9.37112 24.0284C15.2104 30.176 20.6893 30.4204 22.9299 30.1993C23.6386 30.1293 24.2549 29.7472 24.7515 29.2242L26.7048 27.1678C28.0233 25.7797 27.6515 23.4 25.9645 22.429L23.3376 20.9169C22.2299 20.2793 20.8805 20.4666 20.0148 21.3781Z" fill="white"/>
</svg>
