<svg width="253" height="33" viewBox="0 0 253 33" fill="none" xmlns="http://www.w3.org/2000/svg">
<path d="M29.267 24V5.5977H37.8547C40.7528 5.5977 42.2019 7.04677 42.2019 9.94491V11.6251C42.2019 12.2296 42.0241 12.7453 41.6685 13.172L40.7351 14.2921L41.8552 15.2256C42.4419 15.7056 42.7353 16.4168 42.7353 17.3592V19.6528C42.7353 22.5509 41.2862 24 38.3881 24H29.267ZM32.5207 21.0396H38.3081C39.0904 21.0396 39.4816 20.6574 39.4816 19.8928V17.0925C39.4816 16.3279 39.0904 15.9457 38.3081 15.9457H32.5207V21.0396ZM32.5207 12.9853H37.7747C38.557 12.9853 38.9482 12.5941 38.9482 11.8118V9.70488C38.9482 8.94034 38.557 8.55807 37.7747 8.55807H32.5207V12.9853ZM46.5868 24V5.5977H49.8406V21.0396H58.1616V24H46.5868ZM60.9078 19.6528V5.5977H64.1615V19.8928C64.1615 20.6574 64.5527 21.0396 65.335 21.0396H70.749C71.5313 21.0396 71.9225 20.6574 71.9225 19.8928V5.5977H75.1762V19.6528C75.1762 22.5509 73.7272 24 70.829 24H65.255C62.3569 24 60.9078 22.5509 60.9078 19.6528ZM79.5597 24V5.5977H91.9346V8.55807H82.8134V12.9853H91.1345V15.9457H82.8134V21.0396H91.9346V24H79.5597ZM94.7251 22.7732V21.0396H102.966C103.748 21.0396 104.14 20.6574 104.14 19.8928V17.8659C104.14 17.1903 103.837 16.7902 103.233 16.6657L97.8189 15.5723C95.7564 15.1633 94.7251 13.7765 94.7251 11.4118V9.94491C94.7251 7.04677 96.1742 5.5977 99.0723 5.5977H105.286L106.86 6.82452V8.55807H99.1524C98.37 8.55807 97.9789 8.94034 97.9789 9.70488V11.4918C97.9789 12.1674 98.2811 12.5675 98.8857 12.6919L104.3 13.7587C106.362 14.1854 107.393 15.5723 107.393 17.9192V19.6528C107.393 22.5509 105.944 24 103.046 24H96.2987L94.7251 22.7732ZM110.859 19.6528V9.94491C110.859 7.04677 112.309 5.5977 115.207 5.5977H121.314C124.212 5.5977 125.661 7.04677 125.661 9.94491V19.6528C125.661 22.5509 124.212 24 121.314 24H115.207C112.309 24 110.859 22.5509 110.859 19.6528ZM114.113 19.8928C114.113 20.6574 114.504 21.0396 115.287 21.0396H121.234C122.016 21.0396 122.408 20.6574 122.408 19.8928V9.70488C122.408 8.94034 122.016 8.55807 121.234 8.55807H115.287C114.504 8.55807 114.113 8.94034 114.113 9.70488V19.8928ZM129.771 19.6528V5.5977H133.024V19.8928C133.024 20.6574 133.415 21.0396 134.198 21.0396H139.612C140.394 21.0396 140.785 20.6574 140.785 19.8928V5.5977H144.039V19.6528C144.039 22.5509 142.59 24 139.692 24H134.118C131.22 24 129.771 22.5509 129.771 19.6528ZM148.422 24V5.5977H157.277C160.175 5.5977 161.624 7.04677 161.624 9.94491V12.9586C161.624 15.1989 160.735 16.5591 158.957 17.0391L162.158 23.3066L161.757 24H158.984L155.57 17.2792H151.676V24H148.422ZM151.676 14.3188H157.197C157.979 14.3188 158.37 13.9276 158.37 13.1453V9.70488C158.37 8.94034 157.979 8.55807 157.197 8.55807H151.676V14.3188ZM165.345 19.6528V9.94491C165.345 7.04677 166.794 5.5977 169.693 5.5977H176.947L178.52 6.82452V8.55807H169.773C168.99 8.55807 168.599 8.94034 168.599 9.70488V19.8928C168.599 20.6574 168.99 21.0396 169.773 21.0396H178.52V22.7732L176.947 24H169.693C166.794 24 165.345 22.5509 165.345 19.6528ZM182.125 24V5.5977H194.499V8.55807H185.378V12.9853H193.699V15.9457H185.378V21.0396H194.499V24H182.125ZM197.717 24V20.5329H201.184V24H197.717ZM205.331 24V5.5977H208.584V24H205.331ZM213.118 24V5.5977H221.972C224.871 5.5977 226.32 7.04677 226.32 9.94491V12.9586C226.32 15.1989 225.431 16.5591 223.653 17.0391L226.853 23.3066L226.453 24H223.679L220.266 17.2792H216.372V24H213.118ZM216.372 14.3188H221.892C222.675 14.3188 223.066 13.9276 223.066 13.1453V9.70488C223.066 8.94034 222.675 8.55807 221.892 8.55807H216.372V14.3188Z" fill="white"/>
<path d="M8.5 11L15.8612 23.75H1.13878L8.5 11Z" fill="white"/>
<path d="M244.5 24L251.861 11.25H237.139L244.5 24Z" fill="white"/>
</svg>
