<svg width="432" height="341" viewBox="0 0 432 341" fill="none" xmlns="http://www.w3.org/2000/svg">
<path d="M38.5388 281.834H420.089C425.905 281.834 430.614 277.126 430.614 271.309V11.9104C430.614 6.09367 425.905 1.38489 420.089 1.38489H38.4003C32.5836 1.38489 27.8749 6.09367 27.8749 11.9104V271.309C28.0134 277.126 32.7221 281.834 38.5388 281.834Z" fill="white"/>
<path d="M38.5387 283.219H420.089C426.598 283.219 431.999 277.957 431.999 271.309V11.9105C431.999 5.26276 426.736 0 420.089 0H38.4002C31.891 0 26.4898 5.26276 26.4898 11.9105V271.309C26.6282 277.818 32.0295 283.219 38.5387 283.219ZM420.089 2.76987C425.213 2.76987 429.229 6.78619 429.229 11.9105V271.309C429.229 276.295 425.213 280.45 420.089 280.45H38.4002C33.4144 280.45 29.2596 276.433 29.2596 271.309V11.9105C29.2596 6.92468 33.2759 2.76987 38.4002 2.76987H420.089Z" fill="#004087"/>
<path d="M416.626 18.5581C419.534 18.5581 422.027 16.2037 422.027 13.1569C422.027 10.2485 419.673 7.75562 416.626 7.75562C413.579 7.75562 411.225 10.11 411.225 13.1569C411.363 16.2037 413.718 18.5581 416.626 18.5581ZM416.626 10.664C418.011 10.664 419.257 11.7719 419.257 13.2954C419.257 14.6803 418.15 15.9267 416.626 15.9267C415.103 15.9267 413.995 14.8188 413.995 13.2954C414.133 11.7719 415.241 10.664 416.626 10.664Z" fill="#004087"/>
<path d="M403.331 18.5581C406.24 18.5581 408.732 16.2037 408.732 13.1569C408.732 10.2485 406.378 7.75562 403.331 7.75562C400.284 7.75562 397.93 10.11 397.93 13.1569C398.068 16.2037 400.423 18.5581 403.331 18.5581ZM403.331 10.664C404.716 10.664 405.963 11.7719 405.963 13.2954C405.963 14.6803 404.855 15.9267 403.331 15.9267C401.808 15.9267 400.7 14.8188 400.7 13.2954C400.838 11.7719 401.946 10.664 403.331 10.664Z" fill="#004087"/>
<path d="M390.034 18.5581C392.943 18.5581 395.436 16.2037 395.436 13.1569C395.436 10.2485 393.081 7.75562 390.034 7.75562C386.987 7.75562 384.633 10.11 384.633 13.1569C384.772 16.2037 387.126 18.5581 390.034 18.5581ZM390.034 10.664C391.419 10.664 392.666 11.7719 392.666 13.2954C392.666 14.6803 391.558 15.9267 390.034 15.9267C388.511 15.9267 387.403 14.8188 387.403 13.2954C387.541 11.7719 388.649 10.664 390.034 10.664Z" fill="#004087"/>
<path d="M59.4516 49.3036H138.67V137.386H59.4516V49.3036Z" fill="#CACACA"/>
<path d="M59.4516 36.2854H138.67V39.0553H59.4516V36.2854Z" fill="#004087"/>
<path d="M82.9955 26.1753H138.67V28.9452H82.9955V26.1753Z" fill="#004087"/>
<path d="M359.428 223.944H399.591C408.039 223.944 414.964 230.869 414.964 239.317C414.964 247.211 408.87 253.859 401.115 254.69L392.528 254.828H359.428C350.98 254.828 344.055 247.903 344.055 239.455C344.055 230.869 350.98 223.944 359.428 223.944Z" fill="#007AFF"/>
<path d="M361.506 238.07H397.515V240.84H361.506V238.07Z" fill="#004087"/>
<path d="M412.195 136.832H406.656H402.916H397.376V63.4301H412.195V136.832Z" fill="#007AFF"/>
<path d="M388.097 136.832H382.557H378.956H373.416V38.7781H388.097V136.832Z" fill="#007AFF"/>
<path d="M364.138 136.831H358.598H354.859H349.319V85.8658H364.138V136.831Z" fill="#007AFF"/>
<path d="M340.041 136.831H334.501H330.762H325.222V63.2914H340.041V136.831Z" fill="#007AFF"/>
<path d="M315.942 136.831H310.403H306.663H301.124V49.996H315.942V136.831Z" fill="#007AFF"/>
<path d="M291.844 136.832H286.304H282.565H277.025V102.762H291.844V136.832Z" fill="#007AFF"/>
<path d="M267.747 136.832H262.207H258.606H253.067V71.7396H267.747V136.832Z" fill="#007AFF"/>
<path d="M243.788 136.832H238.248H234.509H228.969V89.8822H243.788V136.832Z" fill="#007AFF"/>
<path d="M219.689 102.208V136.832H214.15H210.41H204.871V102.208H219.689Z" fill="#007AFF"/>
<path d="M401.254 176.164H410.81C411.641 176.164 412.195 175.61 412.195 174.779V165.223C412.195 164.392 411.641 163.838 410.81 163.838H401.254C400.423 163.838 399.869 164.392 399.869 165.223V174.779C399.869 175.471 400.423 176.164 401.254 176.164ZM409.287 173.394H402.501V166.608H409.287V173.394Z" fill="#004087"/>
<path d="M343.087 171.455H390.036C390.867 171.455 391.421 170.901 391.421 170.07C391.421 169.239 390.867 168.685 390.036 168.685H343.087C342.256 168.685 341.702 169.239 341.702 170.07C341.702 170.763 342.256 171.455 343.087 171.455Z" fill="#004087"/>
<path d="M401.254 193.06H410.81C411.641 193.06 412.195 192.506 412.195 191.675V182.119C412.195 181.288 411.641 180.734 410.81 180.734H401.254C400.423 180.734 399.869 181.288 399.869 182.119V191.675C399.869 192.368 400.423 193.06 401.254 193.06ZM409.287 190.29H402.501V183.504H409.287V190.29Z" fill="#004087"/>
<path d="M310.541 188.213H390.036C390.867 188.213 391.421 187.659 391.421 186.828C391.421 185.997 390.867 185.443 390.036 185.443H310.541C309.71 185.443 309.156 185.997 309.156 186.828C309.156 187.659 309.848 188.213 310.541 188.213Z" fill="#004087"/>
<path d="M401.254 210.649H410.81C411.641 210.649 412.195 210.095 412.195 209.264V199.708C412.195 198.877 411.641 198.323 410.81 198.323H401.254C400.423 198.323 399.869 198.877 399.869 199.708V209.264C399.869 210.095 400.423 210.649 401.254 210.649ZM409.287 207.879H402.501V201.093H409.287V207.879Z" fill="#004087"/>
<path d="M343.087 205.94H390.036C390.867 205.94 391.421 205.386 391.421 204.555C391.421 203.724 390.867 203.17 390.036 203.17H343.087C342.256 203.17 341.702 203.724 341.702 204.555C341.702 205.247 342.256 205.94 343.087 205.94Z" fill="#004087"/>
<path d="M260.683 202.339L265.53 169.101C267.192 158.298 271.901 148.188 279.379 140.155L316.634 100.131C318.158 98.4689 320.927 99.2998 321.343 101.516C322.035 104.978 321.066 108.579 318.712 111.21L306.524 125.475L320.512 120.212L330.207 136.693C331.176 138.355 330.484 140.571 328.545 141.402L331.037 145.557C331.868 146.803 331.176 148.465 329.791 149.019C327.021 149.988 324.113 149.85 321.481 148.604L319.958 147.911L314.28 160.237C313.449 162.037 311.094 162.453 309.571 161.068L309.432 160.929C307.771 159.268 306.801 157.052 306.663 154.697L306.524 150.819L291.844 160.929L293.783 238.347C288.52 254.551 270.239 262.445 254.727 255.382L168.169 229.068L169.554 173.255L264.007 204.97L260.683 202.339Z" fill="white"/>
<path d="M267.053 259.26C271.069 259.26 275.224 258.429 278.963 256.767C286.719 253.305 292.812 246.796 295.444 238.763L295.582 238.486L293.643 161.622L305.692 153.312V154.697C305.692 157.467 306.8 159.96 308.878 161.899L308.739 162.038C309.709 163.007 311.093 163.422 312.478 163.145C313.863 162.868 314.971 162.038 315.525 160.791L320.65 149.712L320.788 149.85C323.696 151.235 327.159 151.374 330.206 150.266C331.314 149.85 332.145 149.019 332.422 148.05C332.837 146.942 332.698 145.834 332.145 144.864L330.344 141.956C330.898 141.402 331.452 140.71 331.591 140.017C332.006 138.771 331.868 137.386 331.175 136.139L325.22 125.891C322.727 121.736 317.741 119.935 313.171 121.597L310.817 122.428L319.819 112.18C322.311 109.133 323.419 105.255 322.727 101.377C322.45 99.8539 321.342 98.6075 319.819 98.192C318.295 97.7765 316.772 98.192 315.664 99.2999L278.547 139.325C270.93 147.634 265.945 157.883 264.283 168.962L259.435 201.647L167.337 170.07L160.689 228.653L254.588 256.49C258.604 258.429 262.898 259.26 267.053 259.26ZM292.674 238.071C290.181 245.272 284.78 251.227 277.855 254.274C270.792 257.321 262.759 257.321 255.696 253.997L255.558 253.859L163.736 226.576L169.692 173.671L264.144 206.078L264.975 203.447L261.928 202.478L266.776 169.378C268.299 158.852 273.008 149.019 280.348 141.125L317.603 101.1C318.018 100.685 318.434 100.546 318.988 100.685C319.542 100.823 319.819 101.239 319.957 101.793C320.511 104.84 319.68 108.025 317.741 110.379L302.091 128.799L314.279 124.09C317.603 122.844 321.204 124.09 323.004 127.137L328.959 137.386C329.236 137.801 329.236 138.355 329.098 138.909C328.959 139.463 328.544 139.879 327.99 140.017L326.466 140.571L329.79 146.111C329.929 146.388 329.929 146.803 329.929 146.942C329.929 147.08 329.652 147.357 329.375 147.496C327.02 148.327 324.389 148.188 322.034 147.08L319.265 145.834L313.032 159.406C312.894 159.822 312.478 160.099 311.924 160.237C311.37 160.376 310.955 160.237 310.54 159.822L310.401 159.683C309.016 158.298 308.185 156.498 308.047 154.42L307.908 147.911L290.458 159.96L292.674 238.071Z" fill="#004087"/>
<path d="M282.979 154.559L283.672 154.42C289.627 153.589 295.028 150.404 298.906 145.695L302.23 141.54L314.279 138.078C316.218 137.524 317.741 135.862 317.88 133.785C318.018 132.261 317.603 130.876 316.495 129.768C315.525 128.661 314.14 128.107 312.617 128.107L289.765 128.384V131.153L312.617 130.876C313.309 130.876 314.002 131.153 314.417 131.569C314.833 131.984 315.11 132.677 314.971 133.369C314.833 134.339 314.279 135.031 313.309 135.308L300.429 138.909L296.552 143.895C293.228 148.05 288.519 150.82 283.118 151.65L282.425 151.789L282.979 154.559Z" fill="#004087"/>
<path d="M328.683 142.787V140.017C324.805 140.017 320.927 138.355 318.296 135.447L317.465 134.477L315.387 136.278L316.218 137.247C319.404 140.71 323.835 142.787 328.683 142.787Z" fill="#004087"/>
<path d="M319.265 148.881L320.927 146.665L320.373 146.249C317.049 143.618 314.279 140.571 312.202 136.832L309.847 138.217C312.063 142.233 315.11 145.557 318.711 148.465L319.265 148.881Z" fill="#004087"/>
<path d="M309.405 142.328L311.894 143.545L308.062 151.384L305.574 150.168L309.405 142.328Z" fill="#004087"/>
<path d="M227.306 191.121L217.75 243.056L194.206 238.347L204.87 321.167H97.9526L86.5962 229.345L68.1765 243.472L42.4167 204.14L90.0585 166.608C101.553 157.606 116.649 154.836 130.499 159.406L227.306 191.121Z" fill="#004087"/>
<path d="M87.5654 230.453C87.8424 230.453 88.1194 230.315 88.3964 230.176L105.016 217.158C105.57 216.742 105.708 215.773 105.293 215.219C104.877 214.665 103.908 214.527 103.354 214.942L86.7345 227.96C86.1805 228.376 86.042 229.345 86.4575 229.899C86.7345 230.176 87.1499 230.453 87.5654 230.453Z" fill="white"/>
<path d="M141.026 294.022C135.901 289.59 128.977 287.928 122.467 289.59C120.805 289.729 119.144 290.006 117.482 290.421L107.233 293.468L48.2348 254.69L65.5465 239.594L45.6034 209.818L11.534 243.195L11.6725 243.472L9.59509 245.411C-2.86933 256.767 -0.514959 276.849 14.1654 284.881C43.3875 301.085 84.1046 323.66 89.5059 326.429L89.6444 326.568C96.7076 331.415 102.247 334.462 110.28 333.354L122.052 331.277L117.897 332.8C115.958 333.493 114.712 335.57 115.127 337.647C115.266 338.755 116.235 339.448 117.343 339.309L127.453 338.34C131.885 337.786 135.763 334.739 137.286 330.446L145.596 308.287C147.396 303.578 146.011 298.177 142.272 294.714L141.026 294.022Z" fill="white"/>
<path d="M116.927 340.833C117.066 340.833 117.204 340.833 117.204 340.833L127.315 339.863C132.439 339.171 136.594 335.847 138.394 331.138L146.704 308.979C148.643 303.716 147.258 297.623 142.964 293.883L141.856 292.914C136.455 288.205 129.115 286.405 122.19 288.205C120.39 288.344 118.728 288.621 117.066 289.175L107.371 292.083L50.4506 254.551L66.2388 240.702C66.7928 240.286 66.9313 239.455 66.5158 238.901L46.5728 209.264C46.2958 208.987 46.0188 208.71 45.6033 208.71C45.1878 208.71 44.7723 208.848 44.4954 209.125L10.4259 242.502C10.1489 242.779 10.0104 242.918 10.0104 243.333L8.48702 244.718C2.25481 250.396 -0.792053 258.429 0.177403 266.877C1.14686 275.325 5.99413 282.388 13.3343 286.543C44.3569 303.716 82.1656 324.629 88.3978 327.953C88.5363 328.091 88.5363 328.091 88.6748 328.23C95.3225 332.8 101.416 336.401 110.28 335.293L114.019 334.601C113.465 335.708 113.188 336.955 113.327 338.34C113.881 339.725 115.266 340.833 116.927 340.833ZM140.194 294.991L141.302 295.961C144.626 299.008 145.873 303.716 144.211 308.01L135.901 330.169C134.516 333.908 131.054 336.539 127.176 337.093L117.204 338.063C116.927 338.063 116.512 337.924 116.512 337.509C116.235 336.124 117.066 334.739 118.451 334.185L122.606 332.662C123.298 332.385 123.714 331.692 123.437 331C123.298 330.307 122.606 329.892 121.913 330.03L110.141 332.108C103.078 333.077 98.0924 330.723 90.7522 325.737C90.6137 325.598 90.4752 325.46 90.3367 325.321C85.074 322.552 46.4342 301.224 14.9962 283.773C8.3485 280.173 4.0552 273.802 3.22424 266.185C2.39327 258.706 5.02468 251.504 10.5644 246.38L12.6418 244.441C12.9188 244.164 13.0573 243.887 13.0573 243.61L45.3263 211.895L63.746 239.178L47.4037 253.443C47.1267 253.72 46.8497 254.136 46.9882 254.551C46.9882 254.967 47.2652 255.382 47.5422 255.659L106.54 294.437C106.817 294.714 107.371 294.714 107.648 294.576L117.897 291.529C119.42 291.114 120.944 290.837 122.467 290.698C122.606 290.698 122.606 290.698 122.744 290.698C128.976 289.313 135.486 290.837 140.194 294.991Z" fill="#004087"/>
<path d="M145.456 309.949C145.872 309.949 146.287 309.81 146.426 309.533C146.98 308.979 146.841 308.148 146.287 307.594L136.593 299.008C136.039 298.454 135.208 298.592 134.654 299.146C134.1 299.7 134.238 300.531 134.792 301.085L144.487 309.672C144.902 309.81 145.179 309.949 145.456 309.949Z" fill="#004087"/>
<path d="M141.994 318.258C142.41 318.258 142.825 318.12 143.102 317.704C143.656 317.15 143.518 316.181 142.964 315.765L133.685 308.01C133.131 307.456 132.161 307.594 131.746 308.148C131.192 308.702 131.33 309.672 131.884 310.087L141.164 317.843C141.44 318.258 141.717 318.258 141.994 318.258Z" fill="#004087"/>
<path d="M138.809 326.568C139.224 326.568 139.64 326.429 139.917 326.014C140.471 325.46 140.332 324.49 139.778 324.075L130.915 316.596C130.361 316.042 129.391 316.181 128.976 316.735C128.422 317.289 128.56 318.258 129.114 318.674L137.978 326.152C138.116 326.429 138.532 326.568 138.809 326.568Z" fill="#004087"/>
<path d="M132.991 136.278L130.775 153.866L123.435 159.406L136.592 176.302C144.901 186.966 161.798 182.534 164.013 169.239L166.091 156.498L132.991 136.278Z" fill="white"/>
<path d="M148.64 183.642C150.025 183.642 151.549 183.504 152.934 183.088C159.443 181.427 164.29 176.164 165.398 169.516L167.475 156.775C167.614 156.221 167.337 155.667 166.783 155.39L133.683 135.17C133.268 134.893 132.714 134.893 132.298 135.17C131.883 135.308 131.606 135.724 131.467 136.278L129.39 153.312L122.604 158.575C122.327 158.852 122.05 159.129 122.05 159.545C122.05 159.96 122.05 160.237 122.327 160.514L135.483 177.41C138.807 181.427 143.516 183.642 148.64 183.642ZM164.567 157.19L162.628 169.101C161.659 174.64 157.781 179.072 152.241 180.457C146.701 181.842 141.162 179.903 137.699 175.471L125.373 159.683L131.606 154.974C131.883 154.697 132.16 154.42 132.16 154.005L134.098 138.494L164.567 157.19Z" fill="#004087"/>
<path d="M164.013 169.378C163.875 170.208 163.736 171.039 163.459 171.732C160.274 170.208 157.366 167.854 154.873 164.807L134.099 138.216L134.93 137.662L166.091 156.498L164.013 169.378Z" fill="#004087"/>
<path d="M128.976 73.4016C140.332 65.2305 156.813 65.7845 160.137 70.2163C162.076 67.5849 165.122 65.369 168.723 64.1225C177.171 61.2142 186.173 64.815 188.666 72.0167C190.882 78.2489 187.558 85.3121 181.188 88.9129C183.819 93.0677 186.035 97.638 187.835 102.624C194.899 122.567 162.907 135.17 156.813 137.247C140.332 142.787 121.774 132.815 115.542 114.811C109.171 96.807 115.403 83.2347 128.976 73.4016Z" fill="#004087"/>
<path d="M129.944 78.5258C134.93 78.6643 139.085 80.1877 141.993 83.096C150.026 91.2672 147.256 113.842 129.39 120.489C128.282 120.905 126.897 120.766 125.928 121.459C120.249 105.117 122.188 88.9128 129.944 78.5258Z" fill="#004087"/>
<path d="M181.741 88.6359C175.371 93.3447 166.23 96.9455 155.704 98.192C138.116 100.408 122.604 95.4221 117.065 86.697C120.527 76.864 127.036 69.3853 136.177 66.3384C151.827 61.3527 170.108 70.9087 181.741 88.6359Z" fill="#004087"/>
<path d="M121.026 139.625C115.28 135.303 114.125 127.141 118.447 121.395C122.769 115.649 130.931 114.494 136.677 118.816C142.423 123.138 143.578 131.3 139.256 137.046C134.934 142.792 126.772 143.947 121.026 139.625Z" fill="white"/>
<path d="M127.313 116.334C130.083 116.057 132.576 116.473 134.931 117.719C141.717 113.011 145.318 105.67 146.149 98.6073C149.334 98.7458 152.519 98.4688 155.982 98.1918C166.23 96.9454 175.232 93.483 181.603 88.9127C184.096 92.929 186.312 97.4993 187.974 102.485C196.283 126.721 190.051 150.819 173.847 156.359C161.798 160.514 147.534 153.174 137.7 139.047C135.762 140.709 133.407 141.956 130.637 142.233C123.574 143.064 117.065 138.078 116.095 130.876C114.988 123.675 120.112 117.165 127.313 116.334Z" fill="white"/>
<path d="M166.645 158.852C169.138 158.852 171.631 158.437 174.124 157.606C191.02 151.789 197.668 126.86 189.081 101.931C187.419 97.0838 185.203 92.3751 182.572 88.0818C182.433 87.8048 182.018 87.5278 181.602 87.3893C181.187 87.2508 180.772 87.3893 180.495 87.6663C173.985 92.3751 165.122 95.5604 155.566 96.6684C152.38 97.0839 149.195 97.2223 146.01 97.0838C145.317 97.0838 144.625 97.6378 144.625 98.3303C143.794 105.532 140.193 111.903 134.653 115.919C132.299 114.811 129.667 114.534 127.036 114.811C119.142 115.78 113.602 122.982 114.572 130.876C115.541 138.77 122.743 144.31 130.637 143.341C132.991 143.064 135.346 142.094 137.285 140.709C145.594 152.343 156.535 158.852 166.645 158.852ZM181.049 90.8516C183.264 94.591 185.065 98.6073 186.588 102.901C194.621 126.306 188.666 149.711 173.293 155.113C162.075 158.99 148.503 152.343 138.669 138.216C138.392 137.939 138.115 137.662 137.7 137.662C137.285 137.662 136.869 137.801 136.592 137.939C134.792 139.463 132.576 140.571 130.221 140.848C123.851 141.679 118.034 137.109 117.203 130.738C116.372 124.367 120.942 118.55 127.313 117.719C129.667 117.442 132.022 117.858 134.099 118.966C134.515 119.243 135.069 119.104 135.484 118.827C141.716 114.534 145.871 107.748 147.118 99.9922C150.026 99.9922 152.934 99.8537 155.843 99.4382C165.537 98.3303 174.262 95.2834 181.049 90.8516Z" fill="#004087"/>
<path d="M159.859 71.0471C160.413 71.0471 160.967 70.6317 161.105 70.0777C165.398 58.1672 180.356 61.0756 181.048 61.2141C181.741 61.3526 182.572 60.9371 182.71 60.1062C182.849 59.4137 182.433 58.5827 181.602 58.4442C181.464 58.4442 163.598 54.9819 158.474 69.1082C158.197 69.8007 158.612 70.6317 159.305 70.9087C159.582 71.0471 159.72 71.0471 159.859 71.0471Z" fill="#004087"/>
<path d="M188.112 112.595C187.974 114.534 186.866 116.196 185.619 116.196C184.373 116.196 183.404 114.534 183.404 112.457C183.542 110.518 184.65 108.856 185.896 108.856C187.143 108.994 188.112 110.656 188.112 112.595Z" fill="#004087"/>
<path d="M182.156 106.086C182.295 106.086 182.433 106.086 182.572 106.086C182.71 106.086 186.45 104.978 190.05 106.086C190.743 106.363 191.574 105.948 191.712 105.117C191.989 104.424 191.574 103.593 190.743 103.455C186.311 102.07 181.879 103.455 181.741 103.455C181.048 103.732 180.633 104.424 180.771 105.117C180.91 105.671 181.464 106.086 182.156 106.086Z" fill="#004087"/>
<path d="M169 115.503C168.861 117.442 167.753 119.104 166.507 119.104C165.26 119.104 164.291 117.442 164.291 115.365C164.429 113.426 165.537 111.764 166.784 111.764C168.169 111.903 169.138 113.565 169 115.503Z" fill="#004087"/>
<path d="M158.198 112.734C158.614 112.734 159.029 112.595 159.306 112.18C159.306 112.18 163.876 106.917 169.416 107.748C170.109 107.886 170.94 107.332 170.94 106.64C171.078 105.948 170.524 105.117 169.832 105.117C162.63 104.009 157.367 110.241 157.229 110.518C156.675 111.072 156.813 112.041 157.367 112.457C157.506 112.595 157.783 112.734 158.198 112.734Z" fill="#004087"/>
<path d="M178.279 126.583H178.417C179.11 126.445 182.849 125.891 184.096 123.675C184.511 122.982 184.788 121.874 183.957 120.351C182.572 117.719 179.664 108.856 179.525 108.717C179.248 108.025 178.556 107.609 177.725 107.886C177.032 108.163 176.617 108.856 176.894 109.687C177.032 110.102 179.941 118.827 181.464 121.597C181.741 122.013 181.603 122.29 181.603 122.29C181.187 122.982 179.248 123.675 178.14 123.813C177.448 123.952 176.894 124.644 176.894 125.337C176.894 126.168 177.586 126.583 178.279 126.583Z" fill="#004087"/>
<path d="M176.894 136.97C179.248 136.97 180.91 136.278 180.91 136.278C181.603 136.001 181.88 135.17 181.603 134.477C181.326 133.785 180.495 133.508 179.802 133.785C179.525 133.923 171.908 136.97 166.923 126.583C166.646 125.891 165.815 125.614 165.122 125.891C164.43 126.168 164.153 126.999 164.43 127.691C168.169 135.447 173.293 136.97 176.894 136.97Z" fill="#004087"/>
<path d="M133.96 127.137C134.237 127.137 134.653 126.999 134.93 126.722C135.484 126.168 135.484 125.337 135.068 124.783C134.93 124.644 130.498 119.935 124.543 121.597C123.85 121.874 123.435 122.567 123.573 123.259C123.85 123.952 124.543 124.367 125.235 124.229C129.528 122.982 132.852 126.583 132.852 126.583C133.268 126.999 133.683 127.137 133.96 127.137Z" fill="#004087"/>
<path d="M172.879 172.009L168.032 195.137L155.983 181.98L144.072 198.461L123.714 159.683L129.807 152.066L155.152 175.61L166.785 161.899L172.879 172.009Z" fill="white"/>
<path d="M144.071 199.846C144.487 199.846 144.902 199.569 145.179 199.292L156.12 184.196L167.061 196.107C167.477 196.522 167.892 196.661 168.446 196.522C169 196.384 169.277 195.968 169.416 195.414L174.263 172.286C174.401 172.009 174.263 171.593 174.124 171.316L168.169 161.206C167.892 160.791 167.477 160.514 167.061 160.514C166.646 160.514 166.23 160.652 165.953 160.929L155.151 173.532L130.776 150.958C130.499 150.681 130.083 150.542 129.668 150.542C129.253 150.542 128.976 150.819 128.699 151.096L122.743 158.852C122.466 159.267 122.328 159.821 122.605 160.375L142.963 199.015C143.102 199.431 143.517 199.708 144.071 199.846ZM155.982 180.595C155.843 180.595 155.843 180.595 155.982 180.595C155.428 180.595 155.151 180.872 154.874 181.149L144.348 195.83L125.513 159.96L130.083 154.143L154.32 176.718C154.597 176.995 155.012 177.133 155.289 177.133C155.705 177.133 155.982 176.995 156.259 176.579L166.646 164.253L171.355 172.286L167.2 192.229L156.951 181.011C156.674 180.734 156.259 180.595 155.982 180.595Z" fill="#004087"/>
<path d="M194.206 239.732C194.344 239.732 194.344 239.732 194.483 239.732C195.175 239.594 195.729 238.901 195.591 238.07L190.19 209.264C190.051 208.571 189.359 208.017 188.528 208.156C187.835 208.294 187.281 208.987 187.42 209.818L192.821 238.624C192.96 239.317 193.514 239.732 194.206 239.732Z" fill="white"/>
</svg>
