<svg width="44" height="44" viewBox="0 0 44 44" fill="none" xmlns="http://www.w3.org/2000/svg">
<path d="M18.6656 5.28003C7.5494 5.28003 0.879883 14.1971 0.879883 18.656C0.879883 23.115 3.10276 26.459 7.5494 26.459C11.996 26.459 14.2198 27.5731 14.2198 30.9171C14.2198 35.3751 17.5541 38.7192 22.0008 38.7192C36.4521 38.7192 43.1208 30.9171 43.1208 23.115C43.1199 9.73899 32.002 5.28003 18.6656 5.28003ZM15.8865 9.73899C17.4212 9.73899 18.6656 10.9868 18.6656 12.5251C18.6656 14.0651 17.4212 15.312 15.8865 15.312C14.3518 15.312 13.1075 14.0642 13.1075 12.5251C13.1075 10.9868 14.3518 9.73899 15.8865 9.73899ZM24.778 9.73899C26.3128 9.73899 27.5571 10.9868 27.5571 12.5251C27.5571 14.0651 26.3128 15.312 24.778 15.312C23.2442 15.312 21.9999 14.0642 21.9999 12.5251C21.9999 10.9868 23.2442 9.73899 24.778 9.73899ZM33.6713 14.1971C35.2069 14.1971 36.4512 15.444 36.4512 16.984C36.4512 18.524 35.2069 19.7701 33.6713 19.7701C32.1366 19.7701 30.8932 18.5231 30.8932 16.984C30.8923 15.4449 32.1366 14.1971 33.6713 14.1971ZM8.10556 16.427C9.64028 16.427 10.8837 17.674 10.8837 19.2122C10.8837 20.7522 9.6394 21.9991 8.10556 21.9991C6.57172 21.9991 5.32652 20.7513 5.32652 19.2122C5.32652 17.674 6.57084 16.427 8.10556 16.427ZM21.9999 27.5731C23.8417 27.5731 25.3342 29.0691 25.3342 30.9179C25.3342 32.7642 23.8417 34.2611 21.9999 34.2611C20.158 34.2611 18.6656 32.7642 18.6656 30.9179C18.6656 29.0691 20.158 27.5731 21.9999 27.5731Z" fill="#007AFF"/>
</svg>
