<svg width="45" height="34" viewBox="0 0 45 34" fill="none" xmlns="http://www.w3.org/2000/svg">
<path d="M43.7774 16.0947L32.535 4.85228C32.1854 4.50269 31.5668 4.50269 31.2172 4.85228L28.7799 7.28965C28.4158 7.65369 28.4158 8.2438 28.7799 8.60785L36.9263 16.7534L28.7803 24.9003C28.4163 25.2643 28.4163 25.8544 28.7803 26.2185L31.2177 28.6559C31.3925 28.8306 31.6298 28.9295 31.8768 28.9295C32.1234 28.9295 32.3611 28.8306 32.5359 28.6559L43.7774 17.4139C44.1415 17.0494 44.1415 16.4588 43.7774 16.0947Z" fill="#007AFF"/>
<path d="M15.2701 24.9003L7.12506 16.7543L15.2715 8.60879C15.4463 8.434 15.5447 8.1972 15.5447 7.94969C15.5447 7.70265 15.4468 7.46539 15.2715 7.29059L12.8341 4.85323C12.6594 4.67843 12.4221 4.58008 12.175 4.58008C11.928 4.58008 11.6907 4.67843 11.5159 4.85323L0.273032 16.0947C-0.0910108 16.4588 -0.0910108 17.0489 0.273032 17.4134L11.5155 28.6554C11.6903 28.8302 11.9275 28.929 12.1746 28.929C12.4216 28.929 12.6589 28.8302 12.8337 28.6554L15.271 26.218C15.6351 25.8545 15.6351 25.2643 15.2701 24.9003Z" fill="#007AFF"/>
<path d="M28.418 1.07012C28.2996 0.852904 28.1001 0.691625 27.8633 0.621707L25.8874 0.0385853C25.3942 -0.107778 24.875 0.17516 24.7295 0.668785L15.5567 31.7327C15.4867 31.97 15.5138 32.2249 15.6317 32.4417C15.7496 32.6594 15.9496 32.8202 16.1864 32.8906L18.1623 33.4737C18.2504 33.4998 18.3394 33.5124 18.4266 33.5124C18.8289 33.5124 19.2004 33.2495 19.3201 32.8435L28.493 1.77909C28.5629 1.54184 28.5364 1.28687 28.418 1.07012Z" fill="#007AFF"/>
</svg>
