<svg width="40" height="45" viewBox="0 0 40 45" fill="none" xmlns="http://www.w3.org/2000/svg">
<path d="M26.1092 3.69114L26.6041 2.96828L27.099 2.26264L28.1949 0.662018C28.3363 0.472698 28.2833 0.197321 28.0712 0.0768447C27.8767 -0.0608428 27.5939 -0.00920788 27.4702 0.197323L26.3036 1.90121L25.8087 2.62406L25.3138 3.34692C23.723 2.74454 21.9732 2.41753 20.0996 2.41753C18.2437 2.41753 16.4762 2.74454 14.8854 3.34692L14.3905 2.62406L13.8956 1.90121L12.729 0.197323C12.5876 0.00800306 12.3224 -0.0436319 12.128 0.0768447C11.9336 0.214532 11.8806 0.472698 12.0043 0.662018L13.1002 2.26264L13.5951 2.96828L14.09 3.69114C10.3782 5.37781 7.85059 8.56184 7.85059 12.2278H32.3663C32.3486 8.56184 29.8387 5.37781 26.1092 3.69114ZM14.8323 8.80279C14.1077 8.80279 13.5244 8.23483 13.5244 7.52918C13.5244 6.82353 14.1077 6.25557 14.8323 6.25557C15.557 6.25557 16.1403 6.82353 16.1403 7.52918C16.1403 8.23483 15.557 8.80279 14.8323 8.80279ZM25.3315 8.80279C24.6068 8.80279 24.0235 8.23483 24.0235 7.52918C24.0235 6.82353 24.6068 6.25557 25.3315 6.25557C26.0562 6.25557 26.6395 6.82353 26.6395 7.52918C26.6571 8.23483 26.0739 8.80279 25.3315 8.80279Z" fill="#007AFF"/>
<path d="M8.00986 13.9144L7.81543 13.9316V16.0486V17.7869V32.6916C7.81543 34.1889 9.0527 35.3937 10.5905 35.3937H12.5878C12.5171 35.6174 12.4817 35.8584 12.4817 36.0993V36.237V37.0976V41.5036C12.4817 42.9149 13.666 44.068 15.1153 44.068C16.5647 44.068 17.749 42.9149 17.749 41.5036V37.0976V36.237V36.0993C17.749 35.8584 17.7136 35.6174 17.6429 35.3937H22.5213C22.4506 35.6174 22.4153 35.8584 22.4153 36.0993V36.237V37.0976V41.5036C22.4153 42.9149 23.5995 44.068 25.0489 44.068C26.4983 44.068 27.6825 42.9149 27.6825 41.5036V37.0976V36.237V36.0993C27.6825 35.8584 27.6472 35.6174 27.5765 35.3937H29.5738C31.1115 35.3937 32.3488 34.1889 32.3488 32.6916V17.7869V16.0486V13.9144H32.1544H8.00986Z" fill="#007AFF"/>
<path d="M3.44905 13.9316C1.99968 13.9316 0.81543 15.0848 0.81543 16.4961V27.4422C0.81543 28.8535 1.99968 30.0067 3.44905 30.0067C4.89843 30.0067 6.08268 28.8535 6.08268 27.4422V16.4961C6.06501 15.0676 4.89843 13.9316 3.44905 13.9316Z" fill="#007AFF"/>
<path d="M36.7313 13.9316C35.2819 13.9316 34.0977 15.0848 34.0977 16.4961V27.4422C34.0977 28.8535 35.2819 30.0067 36.7313 30.0067C38.1807 30.0067 39.3649 28.8535 39.3649 27.4422V16.4961C39.3472 15.0676 38.1807 13.9316 36.7313 13.9316Z" fill="#007AFF"/>
</svg>
