<svg width="41" height="42" viewBox="0 0 41 42" fill="none" xmlns="http://www.w3.org/2000/svg">
<path opacity="0.4" d="M37.5827 21.3309C37.5827 30.7715 29.9345 38.421 20.4993 38.421C11.0642 38.421 3.41602 30.7715 3.41602 21.3309C3.41602 11.8938 11.0642 4.24084 20.4993 4.24084C29.9345 4.24084 37.5827 11.8938 37.5827 21.3309Z" fill="white"/>
<path fill-rule="evenodd" clip-rule="evenodd" d="M21.9867 22.4091C21.9867 23.2328 21.3153 23.9044 20.4919 23.9044C19.6684 23.9044 18.9971 23.2328 18.9971 22.4091V14.8552C18.9971 14.0315 19.6684 13.3599 20.4919 13.3599C21.3153 13.3599 21.9867 14.0315 21.9867 14.8552V22.4091ZM19.0056 27.8314C19.0056 27.0077 19.6736 26.336 20.4919 26.336C21.3341 26.336 22.0037 27.0077 22.0037 27.8314C22.0037 28.6551 21.3341 29.3268 20.5089 29.3268C19.6804 29.3268 19.0056 28.6551 19.0056 27.8314Z" fill="white"/>
</svg>
