<svg width="35" height="35" viewBox="0 0 35 35" fill="none" xmlns="http://www.w3.org/2000/svg">
<g clip-path="url(#clip0_571_369)">
<path fill-rule="evenodd" clip-rule="evenodd" d="M22.1127 25.8103C21.7086 29.1647 20.9825 32.0517 20.0388 34.128C19.5962 35.1002 19.115 35.8823 18.5854 36.4119C18.236 36.7613 17.8879 37 17.5 37C17.1121 37 16.764 36.7613 16.4146 36.4119C15.8849 35.8823 15.4038 35.1002 14.9612 34.128C14.0175 32.0517 13.2914 29.1647 12.8873 25.8103H22.1127ZM13.4021 2.67363C5.76943 4.51745 0.09375 11.3979 0.09375 19.5938C0.09375 27.7896 5.76943 34.67 13.4021 36.5139C12.0183 34.1814 10.9229 30.3769 10.392 25.8103H6.31027C5.62396 25.8103 5.06696 25.2533 5.06696 24.567C5.06696 23.8807 5.62396 23.3237 6.31027 23.3237H10.1645C10.0825 22.1177 10.0402 20.8694 10.0402 19.5938C10.0402 18.3181 10.0825 17.0698 10.1645 15.8638H6.31027C5.62396 15.8638 5.06696 15.3068 5.06696 14.6205C5.06696 13.9342 5.62396 13.3772 6.31027 13.3772H10.392C10.9229 8.81058 12.0183 5.00607 13.4021 2.67363ZM21.5979 2.67363C22.9817 5.00607 24.0771 8.81058 24.608 13.3772H28.6897C29.376 13.3772 29.933 13.9342 29.933 14.6205C29.933 15.3068 29.376 15.8638 28.6897 15.8638H24.8355C24.9175 17.0698 24.9598 18.3181 24.9598 19.5938C24.9598 20.8694 24.9175 22.1177 24.8355 23.3237H28.6897C29.376 23.3237 29.933 23.8807 29.933 24.567C29.933 25.2533 29.376 25.8103 28.6897 25.8103H24.608C24.0771 30.3769 22.9817 34.1814 21.5979 36.5139C29.2306 34.67 34.9062 27.7896 34.9062 19.5938C34.9062 11.3979 29.2306 4.51745 21.5979 2.67363ZM22.3464 15.8638C22.4297 17.0674 22.4732 18.3156 22.4732 19.5938C22.4732 20.8719 22.4297 22.1201 22.3464 23.3237H12.6536C12.5703 22.1201 12.5268 20.8719 12.5268 19.5938C12.5268 18.3156 12.5703 17.0674 12.6536 15.8638H22.3464ZM12.8873 13.3772C13.2914 10.0228 14.0175 7.13585 14.9612 5.05953C15.4038 4.08727 15.8849 3.30523 16.4146 2.77558C16.764 2.42621 17.1121 2.1875 17.5 2.1875C17.8879 2.1875 18.236 2.42621 18.5854 2.77558C19.115 3.30523 19.5962 4.08727 20.0388 5.05953C20.9825 7.13585 21.7086 10.0228 22.1127 13.3772H12.8873Z" fill="#007AFF"/>
</g>
<defs>
<clipPath id="clip0_571_369">
<rect width="35" height="35" fill="white"/>
</clipPath>
</defs>
</svg>
