<svg width="60" height="60" viewBox="0 0 60 60" fill="none" xmlns="http://www.w3.org/2000/svg">
<path d="M54.9704 27.4868L54.9718 40.6895C54.9718 44.3458 52.1175 47.3355 48.5156 47.5519L48.0968 47.5645H11.9022C8.24586 47.5645 5.25618 44.7102 5.03974 41.1083L5.02719 40.6895L5.02539 27.4868H54.9704ZM45.6318 36.25H39.3818L39.1274 36.2671C38.2122 36.3913 37.5068 37.1757 37.5068 38.125C37.5068 39.0742 38.2122 39.8587 39.1274 39.9829L39.3818 40H45.6318L45.8863 39.9829C46.8014 39.8587 47.5068 39.0742 47.5068 38.125C47.5068 37.1757 46.8014 36.3913 45.8863 36.2671L45.6318 36.25ZM48.0968 12.5518C51.7531 12.5518 54.7428 15.406 54.9592 19.008L54.9718 19.4268L54.9704 23.7368H5.02539L5.02719 19.4268C5.02719 15.7704 7.88145 12.7807 11.4834 12.5643L11.9022 12.5518H48.0968Z" fill="#007AFF"/>
</svg>
