<svg width="26" height="26" viewBox="0 0 26 26" fill="none" xmlns="http://www.w3.org/2000/svg">
<path fill-rule="evenodd" clip-rule="evenodd" d="M4.91866 2.16666H8.58033C10.1078 2.16666 11.332 3.4125 11.332 4.94108V8.63416C11.332 10.1725 10.1078 11.4075 8.58033 11.4075H4.91866C3.40199 11.4075 2.16699 10.1725 2.16699 8.63416V4.94108C2.16699 3.4125 3.40199 2.16666 4.91866 2.16666ZM4.91866 14.5922H8.58033C10.1078 14.5922 11.332 15.8283 11.332 17.3666V21.0597C11.332 22.5872 10.1078 23.833 8.58033 23.833H4.91866C3.40199 23.833 2.16699 22.5872 2.16699 21.0597V17.3666C2.16699 15.8283 3.40199 14.5922 4.91866 14.5922ZM21.0821 2.16666H17.4204C15.8929 2.16666 14.6688 3.4125 14.6688 4.94108V8.63416C14.6688 10.1725 15.8929 11.4075 17.4204 11.4075H21.0821C22.5988 11.4075 23.8338 10.1725 23.8338 8.63416V4.94108C23.8338 3.4125 22.5988 2.16666 21.0821 2.16666ZM17.4204 14.5922H21.0821C22.5988 14.5922 23.8338 15.8283 23.8338 17.3666V21.0597C23.8338 22.5872 22.5988 23.833 21.0821 23.833H17.4204C15.8929 23.833 14.6688 22.5872 14.6688 21.0597V17.3666C14.6688 15.8283 15.8929 14.5922 17.4204 14.5922Z" fill="#004087"/>
</svg>
